<svg xmlns="http://www.w3.org/2000/svg" viewBox="0 0 400 600" width="100%" height="100%">
            <!-- Background -->
            <rect width="400" height="600" rx="30" ry="30" fill="#ffffff" stroke="#e0e0e0" stroke-width="5"/>
            <!-- Calculator Screen -->
            <rect x="50" y="50" width="300" height="80" rx="15" ry="15" fill="#f3f4f6" />
            <text x="200" y="100" font-size="30" fill="#333333" font-family="Arial" text-anchor="middle">12345</text>
            <!-- Number Buttons -->
            <rect x="50" y="160" width="80" height="80" rx="15" ry="15" fill="#f9fafb" stroke="#d1d5db" stroke-width="2"/>
            <text x="90" y="210" font-size="30" fill="#111827" font-family="Arial" text-anchor="middle">7</text>
          
            <rect x="150" y="160" width="80" height="80" rx="15" ry="15" fill="#f9fafb" stroke="#d1d5db" stroke-width="2"/>
            <text x="190" y="210" font-size="30" fill="#111827" font-family="Arial" text-anchor="middle">8</text>
          
            <rect x="250" y="160" width="80" height="80" rx="15" ry="15" fill="#f9fafb" stroke="#d1d5db" stroke-width="2"/>
            <text x="290" y="210" font-size="30" fill="#111827" font-family="Arial" text-anchor="middle">9</text>
          
            <rect x="50" y="260" width="80" height="80" rx="15" ry="15" fill="#f9fafb" stroke="#d1d5db" stroke-width="2"/>
            <text x="90" y="310" font-size="30" fill="#111827" font-family="Arial" text-anchor="middle">4</text>
          
            <rect x="150" y="260" width="80" height="80" rx="15" ry="15" fill="#f9fafb" stroke="#d1d5db" stroke-width="2"/>
            <text x="190" y="310" font-size="30" fill="#111827" font-family="Arial" text-anchor="middle">5</text>
          
            <rect x="250" y="260" width="80" height="80" rx="15" ry="15" fill="#f9fafb" stroke="#d1d5db" stroke-width="2"/>
            <text x="290" y="310" font-size="30" fill="#111827" font-family="Arial" text-anchor="middle">6</text>
          
            <rect x="50" y="360" width="80" height="80" rx="15" ry="15" fill="#f9fafb" stroke="#d1d5db" stroke-width="2"/>
            <text x="90" y="410" font-size="30" fill="#111827" font-family="Arial" text-anchor="middle">1</text>
          
            <rect x="150" y="360" width="80" height="80" rx="15" ry="15" fill="#f9fafb" stroke="#d1d5db" stroke-width="2"/>
            <text x="190" y="410" font-size="30" fill="#111827" font-family="Arial" text-anchor="middle">2</text>
          
            <rect x="250" y="360" width="80" height="80" rx="15" ry="15" fill="#f9fafb" stroke="#d1d5db" stroke-width="2"/>
            <text x="290" y="410" font-size="30" fill="#111827" font-family="Arial" text-anchor="middle">3</text>
          
            <rect x="50" y="460" width="180" height="80" rx="15" ry="15" fill="#f9fafb" stroke="#d1d5db" stroke-width="2"/>
            <text x="140" y="510" font-size="30" fill="#111827" font-family="Arial" text-anchor="middle">0</text>
          
            <rect x="250" y="460" width="80" height="80" rx="15" ry="15" fill="#60a5fa" />
            <text x="290" y="510" font-size="30" fill="#ffffff" font-family="Arial" text-anchor="middle">=</text>
          </svg>
